<?xml version="1.0" encoding="UTF-8"?>
<svg width="1026px" height="1026px" viewBox="0 0 1026 1026" version="1.1" xmlns="http://www.w3.org/2000/svg" xmlns:xlink="http://www.w3.org/1999/xlink">
    <!-- Generator: Sketch 61.1 (89650) - https://sketch.com -->
    <title>画板</title>
    <desc>Created with Sketch.</desc>
    <g id="画板" stroke="none" stroke-width="1" fill="none" fill-rule="evenodd">
        <path d="M233.319064,599 C250.992176,599 265.319064,613.326888 265.319064,631 C265.319064,631.545883 265.305096,632.091676 265.277173,632.636845 L258.465119,765.636845 C257.593656,782.651484 243.543952,796 226.50701,796 L126,796 C108.326888,796 94,781.673112 94,764 L94,631 C94,613.326888 108.326888,599 126,599 L233.319064,599 Z M199,648 L160,648 C146.745166,648 136,658.745166 136,672 L136,672 L136,723.083333 C136,736.338167 146.745166,747.083333 160,747.083333 L160,747.083333 L199,747.083333 C212.254834,747.083333 223,736.338167 223,723.083333 L223,723.083333 L223,672 C223,658.745166 212.254834,648 199,648 L199,648 Z M235,260 C252.673112,260 267,274.326888 267,292 L267,425 C267,442.673112 252.673112,457 235,457 L126,457 C108.326888,457 94,442.673112 94,425 L94,292 C94,274.326888 108.326888,260 126,260 L235,260 Z M202,307 L160,307 C146.745166,307 136,317.745166 136,331 L136,331 L136,385.5 C136,398.754834 146.745166,409.5 160,409.5 L160,409.5 L202,409.5 C215.254834,409.5 226,398.754834 226,385.5 L226,385.5 L226,331 C226,317.745166 215.254834,307 202,307 L202,307 Z" id="形状结合" fill="#7B7D7E"></path>
        <path d="M880,80.5 L244,80.5 C226.60303,80.5 212.5,94.6030304 212.5,112 L212.5,944 C212.5,961.39697 226.60303,975.5 244,975.5 L880,975.5 C897.39697,975.5 911.5,961.39697 911.5,944 L911.5,112 C911.5,94.6030304 897.39697,80.5 880,80.5 Z M314.982463,128.922675 C315.117595,128.928433 315.252678,128.93531 315.387697,128.943306 L802.872133,157.810979 C815.629098,158.566416 825.662747,169.000273 825.918915,181.777019 L840.141097,891.128477 C840.41193,904.636681 829.696103,915.814429 816.188497,916.113586 L282.520833,927.93291 C268.993174,928.232512 257.783964,917.509052 257.484362,903.981393 C257.472656,903.452844 257.478062,902.924055 257.50057,902.395856 L289.461615,152.3574 C290.037682,138.838692 301.463754,128.346608 314.982463,128.922675 Z" id="形状结合" stroke="#979797" fill="#C9CED5"></path>
        <polygon id="Z" fill="#7B7D7E" fill-rule="nonzero" points="639.434528 643 648 600.478992 521.352159 600.478992 639.434528 455.521008 648 413 474.066672 413 463.667774 455.521008 577.425249 455.521008 463.667774 600.478992 454 643"></polygon>
        <rect id="矩形" stroke="#979797" fill="#C9CED5" x="454.5" y="276.5" width="216" height="55"></rect>
        <rect id="矩形备份-2" stroke="#979797" fill="#C9CED5" x="629.5" y="740.5" width="50" height="55"></rect>
        <rect id="矩形备份" stroke="#979797" fill="#C9CED5" x="424.5" y="740.5" width="172" height="55"></rect>
    </g>
</svg>